# xmcd
#
# Track frame offsets:
#	150
#	29812
#	45425
#	59266
#	80492
#	102102
#	127964
#	148548
#	171468
#	197578
#	215616
#	236447
#	254589
#	270522
#	286388
#	309083
#	327564
#
# Disc length: 4660 seconds
#
# Revision: 10
# Processed by: cddbd v1.5.2PL0 Copyright (c) Steve Scherf et al.
# Submitted via: audiograbber 1.83.01
#
DISCID=f9123211
DTITLE=Elton John - Diamonds (Deluxe Edition) [remastered] [CD 2)
DYEAR=2017
DGENRE=Pop/Rock
TTITLE0=Elton John - Song For Guy
TTITLE1=Elton John - Blue Eyes
TTITLE2=Elton John - I'm Still Standing
TTITLE3=Elton John - I Guess That's Why They Call It The Blues
TTITLE4=Elton John - Sad Songs (Say So Much)
TTITLE5=Elton John - Nikita
TTITLE6=Elton John - I Don't Wanna Go On With You Like That
TTITLE7=Elton John - Sacrifice
TTITLE8=George Michael and Elton John - Don't Let The Sun Go Down On Me
TTITLE9=Elton John - Something About The Way You Look Tonight
TTITLE10=Elton John - I Want Love
TTITLE11=Elton John - Can You Feel The Love Tonight
TTITLE12=Elton John - Are You Ready For Love?
TTITLE13=Elton John - Electricity
TTITLE14=Elton John - Home Again
TTITLE15=Elton John - Looking Up
TTITLE16=Elton John - Circle Of Life
EXTD=
EXTT0=
EXTT1=
EXTT2=
EXTT3=
EXTT4=
EXTT5=
EXTT6=
EXTT7=
EXTT8=
EXTT9=
EXTT10=
EXTT11=
EXTT12=
EXTT13=
EXTT14=
EXTT15=
EXTT16=
PLAYORDER=
